HIERARCHY
ROOT Hips
{
  OFFSET -37.3084 97.8859 -23.143
  CHANNELS 6 Xposition Yposition Zposition Zrotation Xrotation Yrotation
  JOINT ToSpine
  {
    OFFSET -2.69724 7.43032 -0.144315
    CHANNELS 3 Zrotation Xrotation Yrotation
    JOINT Spine
    {
      OFFSET -0.0310711 10.7595 1.96963
      CHANNELS 3 Zrotation Xrotation Yrotation
      JOINT Spine1
      {
        OFFSET 13.1342 3.43533 0.764692
        CHANNELS 3 Zrotation Xrotation Yrotation
        JOINT Neck
        {
          OFFSET 29.8703 7.82586 -0.130764
          CHANNELS 3 Zrotation Xrotation Yrotation
          JOINT Head
          {
            OFFSET 9.52751 0.295786 -0.907742
            CHANNELS 3 Zrotation Xrotation Yrotation
            End Site
            {
              OFFSET 16.4037 0.713936 2.7358
            }
          }
        }
        JOINT LeftShoulder
        {
          OFFSET 27.5574 4.95586 2.47156
          CHANNELS 3 Zrotation Xrotation Yrotation
          JOINT LeftArm
          {
            OFFSET 1.20734 -0.998971 20.1238
            CHANNELS 3 Zrotation Xrotation Yrotation
            JOINT LeftForeArm
            {
              OFFSET 26.8049 -0.0536703 -0.155908
              CHANNELS 3 Zrotation Xrotation Yrotation
              JOINT LeftHand
              {
                OFFSET 26.6817 0 0.320147
                CHANNELS 3 Zrotation Xrotation Yrotation
                End Site
                {
                  OFFSET 18.6119 0 0.382219
                }
              }
            }
          }
        }
        JOINT RightShoulder
        {
          OFFSET 27.5927 4.71444 -2.65209
          CHANNELS 3 Zrotation Xrotation Yrotation
          JOINT RightArm
          {
            OFFSET 2.83739 -1.17114 -18.7564
            CHANNELS 3 Zrotation Xrotation Yrotation
            JOINT RightForeArm
            {
              OFFSET 28.839 -0.0548439 1.22491
              CHANNELS 3 Zrotation Xrotation Yrotation
              JOINT RightHand
              {
                OFFSET 26.5114 0 -0.101894
                CHANNELS 3 Zrotation Xrotation Yrotation
                End Site
                {
                  OFFSET 18.2168 0 0
                }
              }
            }
          }
        }
      }
    }
  }
  JOINT LeftUpLeg
  {
    OFFSET -4.76168 -1.9167 -10.2353
    CHANNELS 3 Zrotation Xrotation Yrotation
    JOINT LeftLeg
    {
      OFFSET 2.55951 -42.0585 -8.02213
      CHANNELS 3 Zrotation Xrotation Yrotation
      JOINT LeftFoot
      {
        OFFSET 3.16357 -42.5282 -3.95426
        CHANNELS 3 Zrotation Xrotation Yrotation
        JOINT LeftToeBase
        {
          OFFSET 0.346054 -6.02161 12.8035
          CHANNELS 3 Zrotation Xrotation Yrotation
          End Site
          {
            OFFSET 0.134235 -1.35082 5.13018
          }
        }
      }
    }
  }
  JOINT RightUpLeg
  {
    OFFSET -4.94151 -1.41743 10.6446
    CHANNELS 3 Zrotation Xrotation Yrotation
    JOINT RightLeg
    {
      OFFSET -2.56294 -42.0364 -7.94377
      CHANNELS 3 Zrotation Xrotation Yrotation
      JOINT RightFoot
      {
        OFFSET -3.0952 -42.555 -4.02241
        CHANNELS 3 Zrotation Xrotation Yrotation
        JOINT RightToeBase
        {
          OFFSET -0.0828122 -6.13587 12.8035
          CHANNELS 3 Zrotation Xrotation Yrotation
          End Site
          {
            OFFSET -0.131328 -1.35082 5.13018
          }
        }
      }
    }
  }
}
MOTION
Frames:	8
Frame Time:	0.00833333
-72.5541 92.5575 -50.2451 76.5027 -43.7731 -9.22164 -70.1915 0 88.8779 79.3798 68.3252 8.20578 4.94526 17.8883 1.71376 -150.027 25.5311 172.294 -153.893 64.5328 -179.665 0.0655894 -14.458 -33.6105 -80.6653 42.0195 -87.516 10.5103 31.2984 -25.1852 0.420957 0.000575429 0.35866 -1.66288 5.86604 42.9863 -60.2502 -37.4871 85.4189 6.72799 -12.3579 29.0407 0.58676 0.000331238 0.0646654 -58.8262 6.5467 96.4575 -10.645 71.7936 2.83188 -1.87877 -4.63335 -0.291094 6.10208 -14.1159 11.0119 -39.6774 2.41153 74.4182 0.719711 33.8528 -5.96804 -11.5025 -1.00605 1.61693 0.912142 -3.5781 -3.66146 
-72.139 92.8031 -49.6963 76.6162 -43.8082 -9.27708 -70.1915 0 88.8779 80.0009 68.4525 7.66431 4.92376 18.0679 1.50408 -149.856 25.5895 172.243 -153.859 64.6057 -179.526 0.050497 -14.5169 -33.6441 -82.8498 42.2977 -85.5977 10.0473 32.7879 -24.3603 0.420957 0.000575434 0.35866 -1.65483 5.88407 42.7677 -60.4661 -37.8649 85.8336 6.95675 -12.6939 29.2078 0.58676 0.000331238 0.0646654 -58.3863 6.516 96.2096 -10.385 71.6789 3.24223 -1.85822 -4.68549 -0.296696 5.76481 -13.4986 10.2383 -40.3123 2.50192 74.7653 0.771713 33.7039 -6.14893 -11.3291 -1.3941 1.58853 0.844308 -2.40014 -3.95556 
-71.7347 93.0326 -49.1652 76.7105 -43.8561 -9.36163 -70.1915 0 88.8779 80.6169 68.5874 7.13328 4.89591 18.2616 1.28434 -149.704 25.647 172.213 -153.856 64.6795 -179.361 0.0366812 -14.5774 -33.64 -84.8174 42.5285 -83.7151 9.66357 34.0089 -23.7327 0.420957 0.000575439 0.35866 -1.6429 5.9094 42.4515 -60.6909 -38.2653 86.2501 7.19416 -13.0311 29.395 0.58676 0.000331238 0.0646654 -57.9252 6.4708 96.0017 -10.1108 71.5222 3.56127 -1.83651 -4.80561 -0.308291 5.43791 -12.8828 9.61278 -40.9371 2.57275 75.1287 0.838087 33.5318 -6.37145 -11.1835 -1.77847 1.56305 0.779148 -1.33554 -4.14194 
-71.334 93.2535 -48.6466 76.7218 -43.9375 -9.52301 -70.1915 0 88.8779 81.0575 68.7301 6.8084 4.88947 18.4716 1.04682 -149.6 25.7098 172.217 -153.883 64.7582 -179.18 0.0276524 -14.62 -33.6225 -86.2442 42.7422 -82.1244 9.33871 34.808 -23.2714 0.420957 0.000575443 0.35866 -1.63111 5.93785 42.1232 -60.8394 -38.5749 86.6843 7.36427 -13.2374 29.5887 0.58676 0.000331238 0.0646654 -57.4176 6.41811 95.8559 -9.84887 71.3147 3.71334 -1.87619 -4.88362 -0.311209 5.21992 -12.475 9.34809 -41.5396 2.62058 75.4741 0.92336 33.2836 -6.62627 -11.1646 -2.10241 1.55303 0.703732 -0.517981 -4.08813 
-70.9297 93.4734 -48.1356 76.6164 -44.0594 -9.80228 -70.1915 0 88.8779 81.2039 68.8813 6.81795 4.92367 18.7047 0.769145 -149.549 25.7796 172.262 -153.946 64.8445 -178.969 0.0268124 -14.625 -33.6157 -87.018 42.9912 -80.8968 9.1024 35.0873 -23.0059 0.420957 0.000575447 0.35866 -1.62349 5.96548 41.8682 -60.8133 -38.7776 87.2209 7.4036 -13.2297 29.7344 0.58676 0.000331238 0.0646654 -56.8521 6.33396 95.7782 -9.61519 71.0394 3.63477 -2.00307 -4.88851 -0.300421 5.14561 -12.3825 9.64218 -42.126 2.62144 75.7904 1.03766 32.9091 -6.94603 -11.3325 -2.35557 1.56541 0.591835 -0.000365465 -3.65793 
-70.5155 93.7016 -47.6307 76.4318 -44.2092 -10.1659 -70.1915 0 88.8779 81.1646 69.0413 7.0386 4.98081 18.9576 0.461871 -149.537 25.853 172.34 -154.045 64.9354 -178.728 0.03809 -14.577 -33.6118 -87.3165 43.278 -79.9036 8.98153 34.943 -22.9475 0.420957 0.00057545 0.35866 -1.61887 5.98599 41.6963 -60.685 -38.9261 87.8213 7.36536 -13.0951 29.8556 0.58676 0.000331239 0.0646654 -56.2437 6.22733 95.754 -9.40335 70.7058 3.39064 -2.18077 -4.87956 -0.284125 5.15303 -12.4786 10.3323 -42.6987 2.58833 76.0962 1.17128 32.4483 -7.32192 -11.6228 -2.56659 1.5923 0.447431 0.294987 -2.95481 
-70.0966 93.9317 -47.1345 76.2115 -44.3791 -10.5496 -70.1915 0 88.8779 81.1096 69.2111 7.289 5.03263 19.2169 0.166801 -149.564 25.9287 172.444 -154.165 65.0272 -178.489 0.0586383 -14.4899 -33.6026 -87.2476 43.5765 -79.1077 8.94125 34.5136 -23.0336 0.420957 0.000575452 0.35866 -1.61589 6.00332 41.5661 -60.6308 -39.0166 88.3081 7.34766 -12.9577 30.0541 0.58676 0.000331239 0.0646654 -55.6068 6.15335 95.7757 -9.20507 70.3458 3.09705 -2.37836 -4.88205 -0.267475 5.18824 -12.6209 11.0883 -43.2402 2.57154 76.402 1.30145 31.9837 -7.68372 -11.9478 -2.73731 1.62388 0.305541 0.430223 -2.20574 
-69.6834 94.1474 -46.6487 76.0003 -44.5619 -10.8884 -70.1915 0 88.8779 81.2145 69.3923 7.38239 5.04981 19.4693 -0.0739106 -149.632 26.0052 172.564 -154.29 65.1162 -178.281 0.0817555 -14.3879 -33.6124 -86.917 43.8556 -78.4739 8.94319 33.9382 -23.2001 0.420957 0.000575454 0.35866 -1.61835 6.02919 41.4869 -60.8282 -39.0518 88.5021 7.44969 -12.9405 30.4311 0.58676 0.000331239 0.0646654 -54.9555 6.16615 95.8379 -9.00284 69.9916 2.86136 -2.56489 -4.92125 -0.255619 5.18876 -12.6718 11.578 -43.7341 2.61698 76.7184 1.41023 31.5983 -7.96358 -12.2202 -2.86949 1.65031 0.202698 0.467476 -1.63783 
